<svg width="17" height="18" viewBox="0 0 17 18" fill="none" xmlns="http://www.w3.org/2000/svg">
<path d="M1.69876 7.27181C1.73349 6.87085 1.92991 6.49673 2.24892 6.22394C2.56793 5.95115 2.98611 5.79972 3.42018 5.7998H13.8298C14.2639 5.79972 14.6821 5.95115 15.0011 6.22394C15.3201 6.49673 15.5165 6.87085 15.5512 7.27181L16.2445 15.2718C16.2635 15.492 16.2332 15.7134 16.1554 15.9222C16.0776 16.1309 15.954 16.3225 15.7924 16.4848C15.6307 16.6471 15.4346 16.7767 15.2163 16.8653C14.998 16.954 14.7623 16.9998 14.5239 16.9998H2.72609C2.48775 16.9998 2.25201 16.954 2.0337 16.8653C1.8154 16.7767 1.61926 16.6471 1.45764 16.4848C1.29602 16.3225 1.17241 16.1309 1.0946 15.9222C1.01679 15.7134 0.986467 15.492 1.00553 15.2718L1.69876 7.27181V7.27181Z" stroke="black" stroke-width="1.5" stroke-linecap="round" stroke-linejoin="round"/>
<path d="M12.0783 8.20002V4.20001C12.0783 3.35131 11.7144 2.53738 11.0668 1.93726C10.4192 1.33714 9.54091 1 8.62507 1C7.70922 1 6.83089 1.33714 6.18329 1.93726C5.53569 2.53738 5.17188 3.35131 5.17188 4.20001V8.20002" stroke="black" stroke-width="1.5" stroke-linecap="round" stroke-linejoin="round"/>
</svg>
