<svg width="16" height="16" viewBox="0 0 16 16" fill="none" xmlns="http://www.w3.org/2000/svg">
<path d="M2.27251 6.46372C2.30176 6.10731 2.46717 5.77476 2.7358 5.53228C3.00444 5.2898 3.35659 5.1552 3.72213 5.15527H12.4881C12.8537 5.1552 13.2058 5.2898 13.4745 5.53228C13.7431 5.77476 13.9085 6.10731 13.9378 6.46372L14.5215 13.5748C14.5376 13.7705 14.512 13.9674 14.4465 14.1529C14.381 14.3385 14.2769 14.5088 14.1408 14.6531C14.0047 14.7974 13.8395 14.9125 13.6557 14.9913C13.4719 15.0701 13.2733 15.1108 13.0726 15.1108H3.13763C2.93692 15.1108 2.7384 15.0701 2.55457 14.9913C2.37073 14.9125 2.20557 14.7974 2.06946 14.6531C1.93336 14.5088 1.82927 14.3385 1.76375 14.1529C1.69822 13.9674 1.67269 13.7705 1.68874 13.5748L2.27251 6.46372V6.46372Z" stroke="black" stroke-width="1.5" stroke-linecap="round" stroke-linejoin="round"/>
<path d="M11.0132 7.28869V3.73312C11.0132 2.97873 10.7068 2.25523 10.1614 1.72179C9.6161 1.18835 8.87645 0.888672 8.10522 0.888672C7.33398 0.888672 6.59433 1.18835 6.04898 1.72179C5.50364 2.25523 5.19727 2.97873 5.19727 3.73312V7.28869" stroke="black" stroke-width="1.5" stroke-linecap="round" stroke-linejoin="round"/>
</svg>
