<svg width="20" height="14" viewBox="0 0 20 14" fill="none" xmlns="http://www.w3.org/2000/svg">
<path fill-rule="evenodd" clip-rule="evenodd" d="M0 1.16665C0 0.857239 0.15051 0.560496 0.418419 0.341706C0.686328 0.122915 1.04969 0 1.42857 0H18.5714C18.9503 0 19.3137 0.122915 19.5816 0.341706C19.8495 0.560496 20 0.857239 20 1.16665C20 1.47607 19.8495 1.77281 19.5816 1.9916C19.3137 2.21039 18.9503 2.33331 18.5714 2.33331H1.42857C1.04969 2.33331 0.686328 2.21039 0.418419 1.9916C0.15051 1.77281 0 1.47607 0 1.16665Z" fill="black"/>
<path fill-rule="evenodd" clip-rule="evenodd" d="M0 7.00015C0 6.69073 0.107507 6.39399 0.298871 6.1752C0.490234 5.95641 0.749779 5.8335 1.02041 5.8335H13.2653C13.5359 5.8335 13.7955 5.95641 13.9868 6.1752C14.1782 6.39399 14.2857 6.69073 14.2857 7.00015C14.2857 7.30957 14.1782 7.60631 13.9868 7.8251C13.7955 8.04389 13.5359 8.16681 13.2653 8.16681H1.02041C0.749779 8.16681 0.490234 8.04389 0.298871 7.8251C0.107507 7.60631 0 7.30957 0 7.00015Z" fill="black"/>
<path fill-rule="evenodd" clip-rule="evenodd" d="M0 12.8332C0 12.5237 0.112882 12.227 0.313814 12.0082C0.514746 11.7894 0.787268 11.6665 1.07143 11.6665H7.5C7.78416 11.6665 8.05668 11.7894 8.25761 12.0082C8.45855 12.227 8.57143 12.5237 8.57143 12.8332C8.57143 13.1426 8.45855 13.4393 8.25761 13.6581C8.05668 13.8769 7.78416 13.9998 7.5 13.9998H1.07143C0.787268 13.9998 0.514746 13.8769 0.313814 13.6581C0.112882 13.4393 0 13.1426 0 12.8332Z" fill="black"/>
</svg>
