<svg width="16" height="16" viewBox="0 0 16 16" fill="none" xmlns="http://www.w3.org/2000/svg">
<path d="M15.7386 14.4823L12.7242 11.4673C13.6978 10.2246 14.2247 8.69026 14.2203 7.1115C14.2203 5.70498 13.8033 4.33004 13.022 3.16056C12.2407 1.99108 11.1303 1.07959 9.83108 0.541333C8.53187 0.00308131 7.10226 -0.13775 5.72302 0.136649C4.34379 0.411047 3.07689 1.08835 2.08251 2.08291C1.08814 3.07747 0.410969 4.34462 0.136623 5.72411C-0.137724 7.10361 0.00308072 8.53349 0.54123 9.83295C1.07938 11.1324 1.9907 12.2431 3.15996 13.0245C4.32922 13.8059 5.70389 14.223 7.11014 14.223C8.68861 14.2274 10.2226 13.7004 11.4651 12.7266L14.4795 15.7416C14.6472 15.9072 14.8734 16 15.1091 16C15.3447 16 15.5709 15.9072 15.7386 15.7416C15.8215 15.659 15.8872 15.5609 15.9321 15.4528C15.9769 15.3448 16 15.2289 16 15.1119C16 14.9949 15.9769 14.8791 15.9321 14.771C15.8872 14.663 15.8215 14.5648 15.7386 14.4823V14.4823ZM1.77754 7.1115C1.77754 6.05661 2.09029 5.0254 2.67624 4.1483C3.2622 3.27119 4.09504 2.58756 5.06944 2.18387C6.04385 1.78018 7.11606 1.67456 8.15048 1.88036C9.18491 2.08616 10.1351 2.59414 10.8809 3.34006C11.6266 4.08598 12.1345 5.03634 12.3403 6.07096C12.546 7.10558 12.4404 8.17799 12.0368 9.15258C11.6332 10.1272 10.9497 10.9602 10.0728 11.5462C9.19584 12.1323 8.16483 12.4451 7.11014 12.4451C5.69645 12.4432 4.34122 11.8806 3.34159 10.8808C2.34195 9.88095 1.7795 8.52546 1.77754 7.1115Z" fill="black"/>
</svg>
